<?xml version="1.0" encoding="UTF-8"?>
<svg width="24px" height="24px" viewBox="0 0 24 24" version="1.1" xmlns="http://www.w3.org/2000/svg">
    <g stroke="none" stroke-width="1" fill="none" fill-rule="evenodd">
        <path d="M16.102,17.93 L7.97,17.93 L7.97,7.23 L16.102,7.23 L16.102,8.42 L9.29,8.42 L9.29,11.16 L15.46,11.16 L15.46,12.35 L9.29,12.35 L9.29,16.74 L16.102,16.74 L16.102,17.93 Z M19.77,13.79 L19.77,17.93 L18.7,17.93 L18.7,13.79 L17.73,13.79 L17.73,12.83 L18.7,12.83 L18.7,8.76 L19.77,8.76 L19.77,12.83 L20.74,12.83 L20.74,13.79 L19.77,13.79 Z" fill="#FFA116"></path>
        <path d="M13.155,11.62 L14.015,10.75 L15.46,12.35 L14.015,13.95 L13.155,13.08 L14.12,12.35 L13.155,11.62 Z M16.46,8.42 L16.46,16.74 L17.53,16.74 L17.53,8.42 L16.46,8.42 Z" fill="#B3B3B3"></path>
    </g>
</svg> 